<svg xmlns="http://www.w3.org/2000/svg" icons="https://material.io/icons/">
	<symbol id="edit-hamburger-menu" viewBox="0 0 24 24">
		<path d="M20 11H4a1 1 0 0 0 0 2h16a1 1 0 0 0 0-2zM20 6H4a1 1 0 0 0 0 2h16a1 1 0 0 0 0-2zM20 16H4a1 1 0 0 0 0 2h16a1 1 0 0 0 0-2z"/>
	</symbol>
	<symbol id="close" viewBox="0 0 24 24">
		<path d="M19 6.41L17.59 5 12 10.59 6.41 5 5 6.41 10.59 12 5 17.59 6.41 19 12 13.41 17.59 19 19 17.59 13.41 12z"/>
	    <path d="M0 0h24v24H0z" fill="none"/>
	</symbol>
	<symbol id="camera-front" viewBox="0 0 24 24">
		<path d="M0 0h24v24H0z" fill="none"/>
    	<path d="M10 20H5v2h5v2l3-3-3-3v2zm4 0v2h5v-2h-5zM12 8c1.1 0 2-.9 2-2s-.9-2-2-2-1.99.9-1.99 2S10.9 8 12 8zm5-8H7C5.9 0 5 .9 5 2v14c0 1.1.9 2 2 2h10c1.1 0 2-.9 2-2V2c0-1.1-.9-2-2-2zM7 2h10v10.5c0-1.67-3.33-2.5-5-2.5s-5 .83-5 2.5V2z"/>
	</symbol>
	<symbol id="settings" viewBox="0 0 24 24">
		<path d="M0 0h24v24H0z" fill="none"/>
    	<path d="M19.43 12.98c.04-.32.07-.64.07-.98s-.03-.66-.07-.98l2.11-1.65c.19-.15.24-.42.12-.64l-2-3.46c-.12-.22-.39-.3-.61-.22l-2.49 1c-.52-.4-1.08-.73-1.69-.98l-.38-2.65C14.46 2.18 14.25 2 14 2h-4c-.25 0-.46.18-.49.42l-.38 2.65c-.61.25-1.17.59-1.69.98l-2.49-1c-.23-.09-.49 0-.61.22l-2 3.46c-.13.22-.07.49.12.64l2.11 1.65c-.04.32-.07.65-.07.98s.03.66.07.98l-2.11 1.65c-.19.15-.24.42-.12.64l2 3.46c.12.22.39.3.61.22l2.49-1c.52.4 1.08.73 1.69.98l.38 2.65c.03.24.24.42.49.42h4c.25 0 .46-.18.49-.42l.38-2.65c.61-.25 1.17-.59 1.69-.98l2.49 1c.23.09.49 0 .61-.22l2-3.46c.12-.22.07-.49-.12-.64l-2.11-1.65zM12 15.5c-1.93 0-3.5-1.57-3.5-3.5s1.57-3.5 3.5-3.5 3.5 1.57 3.5 3.5-1.57 3.5-3.5 3.5z"/>
	</symbol>
	<symbol id="video-library" viewBox="0 0 24 24">
		<path d="M0 0h24v24H0z" fill="none"/>
    	<path d="M4 6H2v14c0 1.1.9 2 2 2h14v-2H4V6zm16-4H8c-1.1 0-2 .9-2 2v12c0 1.1.9 2 2 2h12c1.1 0 2-.9 2-2V4c0-1.1-.9-2-2-2zm-8 12.5v-9l6 4.5-6 4.5z"/>
	</symbol>
	<symbol id="perm-identity" viewBox="0 0 24 24">
		<path d="M12 5.9c1.16 0 2.1.94 2.1 2.1s-.94 2.1-2.1 2.1S9.9 9.16 9.9 8s.94-2.1 2.1-2.1m0 9c2.97 0 6.1 1.46 6.1 2.1v1.1H5.9V17c0-.64 3.13-2.1 6.1-2.1M12 4C9.79 4 8 5.79 8 8s1.79 4 4 4 4-1.79 4-4-1.79-4-4-4zm0 9c-2.67 0-8 1.34-8 4v3h16v-3c0-2.66-5.33-4-8-4z"/>
    	<path d="M0 0h24v24H0z" fill="none"/>
	</symbol>
	<symbol id="cloud" viewBox="0 0 24 24">
		<path d="M0 0h24v24H0z" fill="none"/>
    	<path d="M19.35 10.04C18.67 6.59 15.64 4 12 4 9.11 4 6.6 5.64 5.35 8.04 2.34 8.36 0 10.91 0 14c0 3.31 2.69 6 6 6h13c2.76 0 5-2.24 5-5 0-2.64-2.05-4.78-4.65-4.96zM19 18H6c-2.21 0-4-1.79-4-4s1.79-4 4-4h.71C7.37 7.69 9.48 6 12 6c3.04 0 5.5 2.46 5.5 5.5v.5H19c1.66 0 3 1.34 3 3s-1.34 3-3 3z"/>
	</symbol>
	<symbol id="download" viewBox="0 0 1000 1000">
		<path d="M924.3,700.4v222.3c0,37.3-30.2,67.4-67.4,67.4H143c-37.2,0-67.4-30.1-67.4-67.4V700.4c0-37.2,30.2-67.4,67.4-67.4c37.2,0,67.4,30.2,67.4,67.4v154.9h579.2V700.4c0-37.2,30.2-67.4,67.4-67.4C894.2,633,924.3,663.2,924.3,700.4z M452.4,758.1c13.2,13.2,30.4,19.7,47.6,19.7c17.3,0,34.5-6.6,47.7-19.7l202-202c26.4-26.3,26.4-68.9,0-95.2c-26.3-26.3-69-26.3-95.2,0l-87,87.1V77.4c0-37.2-30.1-67.4-67.4-67.4c-37.2,0-67.4,30.2-67.4,67.4v470.6l-87.1-87.1c-26.3-26.3-69-26.3-95.2,0c-26.3,26.3-26.3,69,0,95.2L452.4,758.1z"/>
	</symbol>
</svg>
